<svg width="156" height="202" viewBox="0 0 156 202" fill="none" xmlns="http://www.w3.org/2000/svg">
<path fill-rule="evenodd" clip-rule="evenodd" d="M60.6745 48.6324C17.0928 58.4508 -7.42481 98.3087 2.00715 140.175C11.6692 183.062 51.0939 209.372 94.6755 199.554C138.257 189.735 162.591 149.061 152.929 106.174C143.497 64.3077 104.256 38.8139 60.6745 48.6324ZM77.1839 157.238C96.1992 157.238 111.614 141.823 111.614 122.808C111.614 103.793 96.1992 88.3778 77.1839 88.3778C58.1686 88.3778 42.7537 103.793 42.7537 122.808C42.7537 141.823 58.1686 157.238 77.1839 157.238Z" fill="black"/>
<path fill-rule="evenodd" clip-rule="evenodd" d="M31.0809 50.4246C33.4364 53.1207 36.8759 55.9314 40.7545 58.6056L28.1908 76.8279C23.6316 73.6846 18.5012 69.667 14.4125 64.9869C10.4932 60.5008 6.26624 53.9626 6.33188 45.9607C6.40371 37.2039 11.4929 30.1979 18.8827 25.0579C26.0593 20.0662 36.4509 15.998 50.3097 12.6184C62.9541 9.53503 73.5585 8.25848 82.1642 8.88911C90.6706 9.51247 98.7524 12.1438 104.116 18.4803C109.647 25.0148 110.277 33.072 109.007 40.02C107.752 46.8906 104.483 53.9206 100.348 60.5408L81.5758 48.8141C84.9168 43.4658 86.6707 39.1258 87.2343 36.0416C87.5058 34.5556 87.447 33.6502 87.3617 33.198C87.3214 32.9842 87.2768 32.8776 87.2606 32.8427C87.2466 32.8122 87.2373 32.7988 87.2215 32.7801L87.2211 32.7796C87.2069 32.7627 86.9312 32.4336 85.9518 32.0337C84.9149 31.6103 83.1994 31.158 80.5465 30.9636C75.1565 30.5686 67.0617 31.3157 55.5535 34.122C42.7784 37.2373 35.4361 40.5054 31.5211 43.2285C29.2892 44.7809 28.6354 45.7925 28.4694 46.1872C28.4848 46.3036 28.5503 46.6287 28.826 47.2022C29.217 48.0154 29.9242 49.1005 31.0809 50.4246ZM28.4234 46.3741C28.4138 46.3734 28.4173 46.3158 28.4628 46.2032C28.4558 46.3185 28.433 46.3747 28.4234 46.3741Z" fill="black"/>
<path d="M100.952 135.256L75.25 97.9593C74.9124 97.4696 74.3185 97.2317 73.7437 97.3551L68.7143 98.4355C68.1387 98.5592 67.6951 99.0208 67.5884 99.6059L59.4707 144.167C59.3052 145.076 60.1082 145.867 61.0014 145.675L68.9981 143.958C69.5029 143.849 69.892 143.444 69.985 142.931L74.9751 115.336L90.8577 138.447C91.1533 138.877 91.6744 139.086 92.1793 138.978L100.176 137.26C101.069 137.068 101.476 136.017 100.952 135.256Z" fill="#E0303B"/>
</svg>
