<svg width="156" height="202" viewBox="0 0 156 202" fill="none" xmlns="http://www.w3.org/2000/svg">
<path fill-rule="evenodd" clip-rule="evenodd" d="M60.6745 48.6322C17.0928 58.4507 -7.42481 98.3086 2.00715 140.175C11.6692 183.062 51.0939 209.372 94.6755 199.554C138.257 189.735 162.591 149.061 152.929 106.173C143.497 64.3076 104.256 38.8137 60.6745 48.6322ZM77.1316 162.018C98.6707 162.018 116.132 144.557 116.132 123.018C116.132 101.478 98.6707 84.0175 77.1316 84.0175C55.5925 84.0175 38.1316 101.478 38.1316 123.018C38.1316 144.557 55.5925 162.018 77.1316 162.018Z" fill="white"/>
<path fill-rule="evenodd" clip-rule="evenodd" d="M31.0809 50.4245C33.4364 53.1205 36.8759 55.9313 40.7545 58.6055L28.1908 76.8278C23.6316 73.6844 18.5012 69.6669 14.4125 64.9868C10.4932 60.5007 6.26624 53.9625 6.33188 45.9606C6.40371 37.2038 11.4929 30.1977 18.8827 25.0578C26.0593 20.0661 36.4509 15.9979 50.3097 12.6183C62.9541 9.53491 73.5585 8.25835 82.1642 8.88899C90.6706 9.51235 98.7524 12.1437 104.116 18.4801C109.647 25.0146 110.277 33.0719 109.007 40.0198C107.752 46.8904 104.483 53.9205 100.348 60.5407L81.5758 48.814C84.9168 43.4657 86.6707 39.1257 87.2343 36.0415C87.5058 34.5555 87.447 33.65 87.3617 33.1979C87.3214 32.9841 87.2768 32.8774 87.2606 32.8425C87.2466 32.8121 87.2373 32.7987 87.2215 32.78L87.2211 32.7795C87.2069 32.7626 86.9312 32.4335 85.9518 32.0336C84.9149 31.6102 83.1994 31.1579 80.5465 30.9635C75.1565 30.5685 67.0617 31.3155 55.5535 34.1219C42.7784 37.2372 35.4361 40.5053 31.5211 43.2284C29.2892 44.7808 28.6354 45.7924 28.4694 46.187C28.4848 46.3035 28.5503 46.6285 28.826 47.202C29.217 48.0153 29.9242 49.1004 31.0809 50.4245ZM28.4234 46.374C28.4138 46.3733 28.4173 46.3156 28.4628 46.2031C28.4558 46.3183 28.433 46.3746 28.4234 46.374Z" fill="white"/>
<path d="M103.275 136.701L75.1889 95.9441C74.82 95.409 74.171 95.149 73.5429 95.2839L68.0469 96.4646C67.4179 96.5997 66.9331 97.1041 66.8166 97.7435L57.9459 146.438C57.765 147.431 58.6425 148.296 59.6186 148.086L68.357 146.209C68.9087 146.091 69.3339 145.648 69.4354 145.087L74.8884 114.932L92.2443 140.187C92.5673 140.658 93.1368 140.886 93.6885 140.768L102.427 138.891C103.403 138.681 103.848 137.532 103.275 136.701Z" fill="#E0303B"/>
</svg>
