<svg width="839" height="394" viewBox="0 0 839 394" fill="none" xmlns="http://www.w3.org/2000/svg">
<path d="M1.11215 153.081C0.442276 152.434 0.375522 151.415 0.905519 150.649L20.6439 122.114C21.3332 121.117 22.7431 120.94 23.6821 121.705C28.8843 125.948 45.086 137.883 62.7392 137.883C71.3271 137.883 80.6306 134.543 80.6306 124.286C80.6306 104.009 3.81683 104.724 3.81683 52.2429C3.81683 20.754 30.2961 0 64.1705 0C95.9163 0 113.768 14.4289 118.032 18.3496C118.656 18.9233 118.777 19.8261 118.387 20.5789L102.557 51.1693C101.961 52.3222 100.436 52.6342 99.4025 51.8485C94.3212 47.9852 80.0716 38.4069 63.6934 38.4069C55.1055 38.4069 45.5634 42.2237 45.5634 51.7658C45.5634 73.2355 122.377 69.4187 122.377 123.331C122.377 151.719 100.669 176.29 62.2621 176.29C27.3878 176.29 6.06134 157.865 1.11215 153.081Z" fill="white"/>
<path d="M174.344 173.427C173.24 173.427 172.344 172.532 172.344 171.427V4.86262C172.344 3.75805 173.24 2.86263 174.344 2.86263H243.194C276.353 2.86263 298.777 27.1949 298.777 61.5464C298.777 95.8979 276.353 120.707 243.194 120.707H216.091C214.986 120.707 214.091 121.603 214.091 122.707V171.427C214.091 172.532 213.195 173.427 212.091 173.427H174.344ZM214.091 82.9245C214.091 84.0291 214.986 84.9245 216.091 84.9245H234.606C249.158 84.9245 256.315 75.1439 256.315 61.5464C256.315 47.949 249.158 38.6454 235.322 38.6454H216.091C214.986 38.6454 214.091 39.5409 214.091 40.6454V82.9245Z" fill="white"/>
<path d="M344.399 173.427C343.294 173.427 342.399 172.532 342.399 171.427V4.86262C342.399 3.75805 343.294 2.86263 344.399 2.86263H382.145C383.25 2.86263 384.145 3.75806 384.145 4.86263V171.427C384.145 172.532 383.25 173.427 382.145 173.427H344.399Z" fill="white"/>
<path d="M452.409 173.427C451.304 173.427 450.409 172.532 450.409 171.427V4.86262C450.409 3.75805 451.304 2.86263 452.409 2.86263H509.808C527.222 2.86263 535.572 4.05539 542.967 6.91802C562.29 14.3131 574.456 31.7274 574.456 56.5368C574.456 74.5687 565.961 94.2524 549.205 102.914C549.038 103.001 548.931 103.173 548.931 103.362V103.362C548.931 103.472 548.966 103.578 549.032 103.666C549.525 104.331 551.801 107.489 555.372 113.789L586.878 170.455C587.619 171.789 586.655 173.427 585.13 173.427H543.219C542.477 173.427 541.796 173.016 541.45 172.36L512.279 117.004C511.933 116.347 511.252 115.936 510.51 115.936H494.155C493.051 115.936 492.155 116.832 492.155 117.936V171.427C492.155 172.532 491.26 173.427 490.155 173.427H452.409ZM492.155 78.1535C492.155 79.2581 493.051 80.1535 494.155 80.1535H510.285C523.644 80.1535 531.994 72.7584 531.994 59.1609C531.994 46.2791 527.223 38.6454 506.23 38.6454H494.155C493.051 38.6454 492.155 39.5409 492.155 40.6454V78.1535Z" fill="white"/>
<path d="M638.797 173.427C637.692 173.427 636.797 172.532 636.797 171.427V4.86262C636.797 3.75805 637.692 2.86263 638.797 2.86263H676.544C677.648 2.86263 678.544 3.75806 678.544 4.86263V171.427C678.544 172.532 677.648 173.427 676.544 173.427H638.797Z" fill="white"/>
<path d="M162.026 387.387C160.857 387.387 159.937 386.388 160.033 385.222L173.778 218.658C173.863 217.62 174.73 216.822 175.771 216.822H217.827C218.681 216.822 219.441 217.364 219.718 218.171L244.063 288.865C247.625 299.103 252.016 314.74 252.589 316.79C252.627 316.925 252.749 317.014 252.89 317.014V317.014C253.031 317.014 253.153 316.925 253.191 316.79C253.763 314.74 258.155 299.103 261.716 288.865L286.061 218.171C286.339 217.364 287.099 216.822 287.952 216.822H330.006C331.048 216.822 331.915 217.622 332 218.66L345.511 385.225C345.606 386.39 344.686 387.387 343.518 387.387H305.808C304.756 387.387 303.884 386.572 303.813 385.523L298.692 310.573C297.811 298.684 298.556 284.356 298.676 282.219C298.685 282.066 298.562 281.947 298.409 281.947V281.947C298.293 281.947 298.192 282.016 298.157 282.127C297.549 284.022 292.265 300.468 288.673 310.573L271.259 358.635C270.972 359.426 270.22 359.953 269.379 359.953H236.401C235.559 359.953 234.807 359.426 234.521 358.635L217.107 310.573C213.514 300.468 208.23 284.022 207.623 282.127C207.587 282.016 207.486 281.947 207.371 281.947V281.947C207.217 281.947 207.095 282.066 207.103 282.219C207.224 284.356 207.968 298.684 207.088 310.573L201.967 385.523C201.895 386.572 201.023 387.387 199.972 387.387H162.026Z" fill="white"/>
<path d="M730.037 387.387C728.932 387.387 728.037 386.491 728.037 385.387V218.822C728.037 217.717 728.932 216.822 730.037 216.822H832.908C834.012 216.822 834.908 217.717 834.908 218.822V250.605C834.908 251.709 834.012 252.605 832.908 252.605H771.783C770.679 252.605 769.783 253.5 769.783 254.605V281.617C769.783 282.721 770.679 283.617 771.783 283.617H819.788C820.892 283.617 821.788 284.512 821.788 285.617V317.399C821.788 318.504 820.892 319.399 819.788 319.399H771.783C770.679 319.399 769.783 320.295 769.783 321.399V349.604C769.783 350.709 770.679 351.604 771.783 351.604H836.248C837.352 351.604 838.248 352.499 838.248 353.604V385.387C838.248 386.491 837.352 387.387 836.248 387.387H730.037Z" fill="white"/>
<path d="M536.491 224.535L602.346 383.933C603.211 386.026 605.231 387.387 607.47 387.387L627.057 387.387C629.299 387.387 631.319 386.023 632.184 383.93L698.039 224.535C699.382 221.284 697.026 217.695 693.547 217.695L662.404 217.695C660.438 217.695 658.665 218.893 657.909 220.729L617.265 319.466L576.621 220.729C575.865 218.89 574.092 217.695 572.126 217.695L540.983 217.695C537.504 217.695 535.148 221.284 536.491 224.535Z" fill="#E0303B"/>
<path fill-rule="evenodd" clip-rule="evenodd" d="M433.543 240.615C389.961 250.433 365.443 290.291 374.875 332.157C384.537 375.044 423.962 401.355 467.544 391.536C511.125 381.718 535.459 341.043 525.797 298.156C516.365 256.29 477.124 230.796 433.543 240.615ZM450 354C471.539 354 489 336.539 489 315C489 293.461 471.539 276 450 276C428.461 276 411 293.461 411 315C411 336.539 428.461 354 450 354Z" fill="white"/>
<path fill-rule="evenodd" clip-rule="evenodd" d="M403.949 242.407C406.305 245.103 409.744 247.914 413.623 250.588L401.059 268.81C396.5 265.667 391.369 261.649 387.281 256.969C383.361 252.483 379.134 245.945 379.2 237.943C379.272 229.186 384.361 222.18 391.751 217.04C398.928 212.049 409.319 207.98 423.178 204.601C435.822 201.517 446.427 200.241 455.032 200.871C463.539 201.495 471.621 204.126 476.984 210.463C482.515 216.997 483.145 225.054 481.876 232.002C480.62 238.873 477.351 245.903 473.216 252.523L454.444 240.796C457.785 235.448 459.539 231.108 460.102 228.024C460.374 226.538 460.315 225.632 460.23 225.18C460.19 224.967 460.145 224.86 460.129 224.825C460.115 224.794 460.105 224.781 460.09 224.762L460.089 224.762C460.075 224.745 459.799 224.416 458.82 224.016C457.783 223.593 456.068 223.14 453.415 222.946C448.025 222.551 439.93 223.298 428.422 226.104C415.647 229.22 408.304 232.488 404.389 235.211C402.157 236.763 401.504 237.775 401.338 238.169C401.353 238.286 401.419 238.611 401.694 239.184C402.085 239.998 402.792 241.083 403.949 242.407ZM401.292 238.356C401.282 238.356 401.285 238.298 401.331 238.185C401.324 238.301 401.301 238.357 401.292 238.356Z" fill="white"/>
<path d="M469.247 324.394L448.239 293.908C447.963 293.508 447.477 293.314 447.007 293.414L442.896 294.298C442.426 294.399 442.063 294.776 441.976 295.254L435.341 331.678C435.205 332.421 435.862 333.068 436.592 332.911L443.128 331.507C443.541 331.418 443.859 331.087 443.935 330.667L448.014 308.112L460.996 327.002C461.238 327.354 461.664 327.525 462.076 327.437L468.613 326.032C469.343 325.876 469.676 325.016 469.247 324.394Z" fill="#E0303B"/>
</svg>
